# xmcd
# 
# Track frame offsets:
#     183
#     13368
#     21630
#     34948
#     45935
#     56998
#     68080
#     77333
#     88040
#     97470
#     109325
#     118275
#     127660
#     136125
# 
# Disc length: 1968
# 
# Revision: 4
# Processed by: cddbd v1.5.2PL0 Copyright (c) Steve Scherf et al.
# Submitted via: fre:ac v1.0.31
# 
DISCID=c507ae0e
DTITLE=Beatles - Please Please Me
DYEAR=0
DGENRE=Pop
TTITLE0=I Saw Her Standing There
TTITLE1=Misery
TTITLE2=Anna (Go To Him)
TTITLE3=Chains
TTITLE4=Boys
TTITLE5=Ask Me Why
TTITLE6=Please Please Me
TTITLE7=Love Me Do
TTITLE8=P.S. I Love You
TTITLE9=Baby It's You
TTITLE10=Do You Want To Know A Secret
TTITLE11=A Taste Of Honey
TTITLE12=There's A Place
TTITLE13=Twist And Shout
EXTD=
EXTT0=
EXTT1=
EXTT2=
EXTT3=
EXTT4=
EXTT5=
EXTT6=
EXTT7=
EXTT8=
EXTT9=
EXTT10=
EXTT11=
EXTT12=
EXTT13=
PLAYORDER=
